{"Protocol":0,"Id":"4db07da42c7d2d21635ac25d6e393da9","Path":"/media/ram/2014 X-ART/[X-Art] 2013-11-27 Lisa And Bailey - I Want to Tell You [MP4][1920x1080]/x-art_lisa_bailey_i_want_to_tell_you-1080.mp4","EncoderPath":null,"EncoderProtocol":null,"Type":0,"Container":"mov,mp4,m4a,3gp,3g2,mj2","Size":599582678,"Name":"x-art_lisa_bailey_i_want_to_tell_you-1080","IsRemote":false,"ETag":"363e031f5b467e031a278f7704763146","RunTimeTicks":8905600000,"ReadAtNativeFramerate":false,"IgnoreDts":false,"IgnoreIndex":false,"GenPtsInput":false,"SupportsTranscoding":true,"SupportsDirectStream":true,"SupportsDirectPlay":true,"IsInfiniteStream":false,"UseMostCompatibleTranscodingProfile":false,"RequiresOpening":false,"OpenToken":null,"RequiresClosing":false,"LiveStreamId":null,"BufferMs":null,"RequiresLooping":false,"SupportsProbing":true,"VideoType":0,"IsoType":null,"Video3DFormat":null,"MediaStreams":[{"Codec":"mpeg4","CodecTag":"mp4v","Language":"eng","ColorRange":null,"ColorSpace":null,"ColorTransfer":null,"ColorPrimaries":null,"DvVersionMajor":null,"DvVersionMinor":null,"DvProfile":null,"DvLevel":null,"RpuPresentFlag":null,"ElPresentFlag":null,"BlPresentFlag":null,"DvBlSignalCompatibilityId":null,"Rotation":null,"Comment":null,"TimeBase":"1/25","CodecTimeBase":null,"Title":null,"VideoRange":1,"VideoRangeType":1,"VideoDoViTitle":null,"AudioSpatialFormat":0,"LocalizedUndefined":null,"LocalizedDefault":null,"LocalizedForced":null,"LocalizedExternal":null,"LocalizedHearingImpaired":null,"DisplayTitle":"1080p MPEG4 SDR","NalLengthSize":null,"IsInterlaced":false,"IsAVC":false,"ChannelLayout":null,"BitRate":5262104,"BitDepth":8,"RefFrames":1,"PacketLength":null,"Channels":null,"SampleRate":null,"IsDefault":true,"IsForced":false,"IsHearingImpaired":false,"Height":1080,"Width":1920,"AverageFrameRate":25,"RealFrameRate":25,"ReferenceFrameRate":25,"Profile":"Simple Profile","Type":1,"AspectRatio":"16:9","Index":0,"Score":null,"IsExternal":false,"DeliveryMethod":null,"DeliveryUrl":null,"IsExternalUrl":null,"IsTextSubtitleStream":false,"SupportsExternalStream":false,"Path":null,"PixelFormat":"yuv420p","Level":1,"IsAnamorphic":false},{"Codec":"aac","CodecTag":"mp4a","Language":"eng","ColorRange":null,"ColorSpace":null,"ColorTransfer":null,"ColorPrimaries":null,"DvVersionMajor":null,"DvVersionMinor":null,"DvProfile":null,"DvLevel":null,"RpuPresentFlag":null,"ElPresentFlag":null,"BlPresentFlag":null,"DvBlSignalCompatibilityId":null,"Rotation":null,"Comment":null,"TimeBase":"1/48000","CodecTimeBase":null,"Title":null,"VideoRange":0,"VideoRangeType":0,"VideoDoViTitle":null,"AudioSpatialFormat":0,"LocalizedUndefined":null,"LocalizedDefault":"Default","LocalizedForced":null,"LocalizedExternal":"External","LocalizedHearingImpaired":null,"DisplayTitle":"English - AAC - Stereo - Default","NalLengthSize":null,"IsInterlaced":false,"IsAVC":false,"ChannelLayout":"stereo","BitRate":119435,"BitDepth":null,"RefFrames":null,"PacketLength":null,"Channels":2,"SampleRate":48000,"IsDefault":true,"IsForced":false,"IsHearingImpaired":false,"Height":null,"Width":null,"AverageFrameRate":null,"RealFrameRate":null,"ReferenceFrameRate":null,"Profile":"LC","Type":0,"AspectRatio":null,"Index":1,"Score":null,"IsExternal":false,"DeliveryMethod":null,"DeliveryUrl":null,"IsExternalUrl":null,"IsTextSubtitleStream":false,"SupportsExternalStream":false,"Path":null,"PixelFormat":null,"Level":0,"IsAnamorphic":null}],"MediaAttachments":[],"Formats":[],"Bitrate":5386118,"FallbackMaxStreamingBitrate":null,"Timestamp":null,"RequiredHttpHeaders":{},"TranscodingUrl":null,"TranscodingSubProtocol":0,"TranscodingContainer":null,"AnalyzeDurationMs":null,"DefaultAudioStreamIndex":null,"DefaultSubtitleStreamIndex":null,"HasSegments":false}

/usr/lib/jellyfin-ffmpeg/ffmpeg -analyzeduration 200M -probesize 1G -ss 00:02:15.000 -noaccurate_seek  -i file:"/media/ram/2014 X-ART/[X-Art] 2013-11-27 Lisa And Bailey - I Want to Tell You [MP4][1920x1080]/x-art_lisa_bailey_i_want_to_tell_you-1080.mp4" -map_metadata -1 -map_chapters -1 -threads 0 -map 0:0 -map 0:1 -map -0:s -codec:v:0 libx264 -preset veryfast -crf 23 -maxrate 5262104 -bufsize 10524208 -profile:v:0 high -level 51 -x264opts:0 subme=0:me_range=16:rc_lookahead=10:me=hex:open_gop=0 -force_key_frames:0 "expr:gte(t,n_forced*3)" -sc_threshold:v:0 0 -vf "setparams=color_primaries=bt709:color_trc=bt709:colorspace=bt709,scale=trunc(min(max(iw\,ih*a)\,min(1920\,1080*a))/2)*2:trunc(min(max(iw/a\,ih)\,min(1920/a\,1080))/2)*2,format=yuv420p" -codec:a:0 copy -copyts -avoid_negative_ts disabled -max_muxing_queue_size 2048 -f hls -max_delay 5000000 -hls_time 3 -hls_segment_type fmp4 -hls_fmp4_init_filename "9672dfefeab4af496be7964dae9a876b-1.mp4" -start_number 45 -hls_segment_filename "/cache/transcodes/9672dfefeab4af496be7964dae9a876b%d.mp4" -hls_playlist_type vod -hls_list_size 0 -y "/cache/transcodes/9672dfefeab4af496be7964dae9a876b.m3u8"


ffmpeg version 7.0.2-Jellyfin Copyright (c) 2000-2024 the FFmpeg developers
  built with gcc 12 (Debian 12.2.0-14)
  configuration: --prefix=/usr/lib/jellyfin-ffmpeg --target-os=linux --extra-version=Jellyfin --disable-doc --disable-ffplay --disable-ptx-compression --disable-static --disable-libxcb --disable-sdl2 --disable-xlib --enable-lto=auto --enable-gpl --enable-version3 --enable-shared --enable-gmp --enable-gnutls --enable-chromaprint --enable-opencl --enable-libdrm --enable-libxml2 --enable-libass --enable-libfreetype --enable-libfribidi --enable-libfontconfig --enable-libharfbuzz --enable-libbluray --enable-libmp3lame --enable-libopus --enable-libtheora --enable-libvorbis --enable-libopenmpt --enable-libdav1d --enable-libsvtav1 --enable-libwebp --enable-libvpx --enable-libx264 --enable-libx265 --enable-libzvbi --enable-libzimg --enable-libfdk-aac --arch=arm64 --cross-prefix=/usr/bin/aarch64-linux-gnu- --toolchain=hardened --enable-cross-compile --enable-rkmpp --enable-rkrga
  libavutil      59.  8.100 / 59.  8.100
  libavcodec     61.  3.100 / 61.  3.100
  libavformat    61.  1.100 / 61.  1.100
  libavdevice    61.  1.100 / 61.  1.100
  libavfilter    10.  1.100 / 10.  1.100
  libswscale      8.  1.100 /  8.  1.100
  libswresample   5.  1.100 /  5.  1.100
  libpostproc    58.  1.100 / 58.  1.100
Input #0, mov,mp4,m4a,3gp,3g2,mj2, from 'file:/media/ram/2014 X-ART/[X-Art] 2013-11-27 Lisa And Bailey - I Want to Tell You [MP4][1920x1080]/x-art_lisa_bailey_i_want_to_tell_you-1080.mp4':
  Metadata:
    major_brand     : isom
    minor_version   : 512
    compatible_brands: isomiso2mp41
    encoder         : Lavf54.22.100
  Duration: 00:14:50.56, start: 0.000000, bitrate: 5386 kb/s
  Stream #0:0[0x1](eng): Video: mpeg4 (Simple Profile) (mp4v / 0x7634706D), yuv420p, 1920x1080 [SAR 1:1 DAR 16:9], 5262 kb/s, 25 fps, 25 tbr, 25 tbn (default)
      Metadata:
        handler_name    : VideoHandler
        vendor_id       : [0][0][0][0]
  Stream #0:1[0x2](eng): Audio: aac (LC) (mp4a / 0x6134706D), 48000 Hz, stereo, fltp, 119 kb/s (default)
      Metadata:
        handler_name    : SoundHandler
        vendor_id       : [0][0][0][0]
Stream mapping:
  Stream #0:0 -> #0:0 (mpeg4 (native) -> h264 (libx264))
  Stream #0:1 -> #0:1 (copy)
Press [q] to stop, [?] for help
[libx264 @ 0xaaab0558a3b0] using SAR=1/1
[libx264 @ 0xaaab0558a3b0] using cpu capabilities: ARMv8 NEON
[libx264 @ 0xaaab0558a3b0] profile High, level 5.1, 4:2:0, 8-bit
[libx264 @ 0xaaab0558a3b0] 264 - core 164 r3095 baee400 - H.264/MPEG-4 AVC codec - Copyleft 2003-2022 - http://www.videolan.org/x264.html - options: cabac=1 ref=1 deblock=1:0:0 analyse=0x3:0x113 me=hex subme=0 psy=1 psy_rd=1.00:0.00 mixed_ref=0 me_range=16 chroma_me=1 trellis=0 8x8dct=1 cqm=0 deadzone=21,11 fast_pskip=1 chroma_qp_offset=0 threads=6 lookahead_threads=1 sliced_threads=0 nr=0 decimate=1 interlaced=0 bluray_compat=0 constrained_intra=0 bframes=3 b_pyramid=2 b_adapt=1 b_bias=0 direct=1 weightb=1 open_gop=0 weightp=1 keyint=250 keyint_min=25 scenecut=0 intra_refresh=0 rc_lookahead=10 rc=crf mbtree=1 crf=23.0 qcomp=0.60 qpmin=0 qpmax=69 qpstep=4 vbv_maxrate=5262 vbv_bufsize=10524 crf_max=0.0 nal_hrd=none filler=0 ip_ratio=1.40 aq=1:1.00
[hls @ 0xaaab055b3640] Opening '/cache/transcodes/9672dfefeab4af496be7964dae9a876b-1.mp4' for writing
Output #0, hls, to '/cache/transcodes/9672dfefeab4af496be7964dae9a876b.m3u8':
  Metadata:
    encoder         : Lavf61.1.100
  Stream #0:0: Video: h264, yuv420p(bt709, progressive), 1920x1080 [SAR 1:1 DAR 16:9], q=2-31, 25 fps, 12800 tbn (default)
      Metadata:
        encoder         : Lavc61.3.100 libx264
      Side data:
        cpb: bitrate max/min/avg: 5262000/0/0 buffer size: 10524000 vbv_delay: N/A
  Stream #0:1: Audio: aac (LC) (mp4a / 0x6134706D), 48000 Hz, stereo, fltp, 119 kb/s (default)
frame=    0 fps=0.0 q=0.0 size=N/A time=N/A bitrate=N/A speed=N/A    
frame=    0 fps=0.0 q=0.0 size=N/A time=N/A bitrate=N/A speed=N/A    
frame=    2 fps=1.3 q=28.0 size=N/A time=00:00:00.00 bitrate=N/A speed=   0x    
frame=   11 fps=5.5 q=28.0 size=N/A time=00:00:00.36 bitrate=N/A speed=0.18x    
frame=   15 fps=6.0 q=28.0 size=N/A time=00:00:00.52 bitrate=N/A speed=0.208x    
frame=   19 fps=6.3 q=28.0 size=N/A time=00:00:00.72 bitrate=N/A speed=0.24x    
frame=   26 fps=7.4 q=28.0 size=N/A time=00:00:00.96 bitrate=N/A speed=0.274x    
frame=   36 fps=9.0 q=28.0 size=N/A time=00:00:01.36 bitrate=N/A speed=0.339x    
frame=   47 fps= 10 q=28.0 size=N/A time=00:00:01.80 bitrate=N/A speed=0.399x    
frame=   59 fps= 12 q=28.0 size=N/A time=00:00:02.28 bitrate=N/A speed=0.455x    
frame=   68 fps= 12 q=28.0 size=N/A time=00:00:02.64 bitrate=N/A speed=0.478x    
[hls @ 0xaaab055b3640] Opening '/cache/transcodes/9672dfefeab4af496be7964dae9a876b45.mp4' for writing
frame=   76 fps= 13 q=28.0 size=N/A time=00:00:03.04 bitrate=N/A speed=0.505x    
frame=   87 fps= 13 q=28.0 size=N/A time=00:00:03.40 bitrate=N/A speed=0.521x    
frame=   97 fps= 14 q=28.0 size=N/A time=00:00:03.80 bitrate=N/A speed=0.541x    
frame=  105 fps= 14 q=28.0 size=N/A time=00:00:04.12 bitrate=N/A speed=0.547x    
frame=  113 fps= 14 q=28.0 size=N/A time=00:00:04.44 bitrate=N/A speed=0.553x    
frame=  123 fps= 14 q=28.0 size=N/A time=00:00:04.84 bitrate=N/A speed=0.567x    
frame=  136 fps= 15 q=28.0 size=N/A time=00:00:05.36 bitrate=N/A speed=0.594x    
frame=  146 fps= 15 q=25.0 size=N/A time=00:00:05.76 bitrate=N/A speed=0.596x    
frame=  150 fps= 15 q=28.0 size=N/A time=00:00:05.92 bitrate=N/A speed=0.575x    
[hls @ 0xaaab055b3640] Opening '/cache/transcodes/9672dfefeab4af496be7964dae9a876b46.mp4' for writing
frame=  160 fps= 15 q=28.0 size=N/A time=00:00:06.32 bitrate=N/A speed=0.586x    
frame=  167 fps= 15 q=28.0 size=N/A time=00:00:06.60 bitrate=N/A speed=0.585x    
frame=  174 fps= 15 q=28.0 size=N/A time=00:00:06.88 bitrate=N/A speed=0.583x    
frame=  179 fps= 15 q=28.0 size=N/A time=00:00:07.08 bitrate=N/A speed=0.576x    
frame=  190 fps= 15 q=28.0 size=N/A time=00:00:07.52 bitrate=N/A speed=0.588x    
frame=  200 fps= 15 q=28.0 size=N/A time=00:00:07.92 bitrate=N/A speed=0.596x    
frame=  211 fps= 15 q=28.0 size=N/A time=00:00:08.36 bitrate=N/A speed=0.606x    
[hls @ 0xaaab055b3640] Opening '/cache/transcodes/9672dfefeab4af496be7964dae9a876b47.mp4' for writing
frame=  226 fps= 15 q=28.0 size=N/A time=00:00:08.96 bitrate=N/A speed=0.606x    
frame=  237 fps= 15 q=28.0 size=N/A time=00:00:09.40 bitrate=N/A speed=0.615x    
frame=  245 fps= 16 q=28.0 size=N/A time=00:00:09.72 bitrate=N/A speed=0.615x    
frame=  252 fps= 15 q=28.0 size=N/A time=00:00:10.00 bitrate=N/A speed=0.613x    
frame=  261 fps= 16 q=28.0 size=N/A time=00:00:10.36 bitrate=N/A speed=0.616x    
frame=  265 fps= 15 q=28.0 size=N/A time=00:00:10.52 bitrate=N/A speed=0.608x    
frame=  275 fps= 15 q=28.0 size=N/A time=00:00:10.92 bitrate=N/A speed=0.613x    
frame=  285 fps= 16 q=28.0 size=N/A time=00:00:11.32 bitrate=N/A speed=0.618x    
frame=  295 fps= 16 q=28.0 size=N/A time=00:00:11.72 bitrate=N/A speed=0.623x    
[hls @ 0xaaab055b3640] Opening '/cache/transcodes/9672dfefeab4af496be7964dae9a876b48.mp4' for writing
frame=  301 fps= 16 q=28.0 size=N/A time=00:00:12.08 bitrate=N/A speed=0.625x    
frame=  318 fps= 16 q=28.0 size=N/A time=00:00:12.64 bitrate=N/A speed=0.638x    
frame=  328 fps= 16 q=28.0 size=N/A time=00:00:13.04 bitrate=N/A speed=0.642x    
frame=  340 fps= 16 q=28.0 size=N/A time=00:00:13.52 bitrate=N/A speed=0.649x    
frame=  352 fps= 17 q=28.0 size=N/A time=00:00:14.00 bitrate=N/A speed=0.657x    
frame=  358 fps= 16 q=28.0 size=N/A time=00:00:14.24 bitrate=N/A speed=0.652x    
frame=  368 fps= 16 q=28.0 size=N/A time=00:00:14.64 bitrate=N/A speed=0.656x    
frame=  375 fps= 16 q=28.0 size=N/A time=00:00:14.92 bitrate=N/A speed=0.654x    
[hls @ 0xaaab055b3640] Opening '/cache/transcodes/9672dfefeab4af496be7964dae9a876b49.mp4' for writing
frame=  384 fps= 16 q=28.0 size=N/A time=00:00:15.28 bitrate=N/A speed=0.655x    
frame=  393 fps= 16 q=28.0 size=N/A time=00:00:15.64 bitrate=N/A speed=0.656x    
frame=  404 fps= 17 q=28.0 size=N/A time=00:00:16.08 bitrate=N/A speed=0.661x    
frame=  415 fps= 17 q=28.0 size=N/A time=00:00:16.52 bitrate=N/A speed=0.665x    
frame=  429 fps= 17 q=28.0 size=N/A time=00:00:17.08 bitrate=N/A speed=0.674x    
frame=  443 fps= 17 q=28.0 size=N/A time=00:00:17.64 bitrate=N/A speed=0.683x    
[hls @ 0xaaab055b3640] Opening '/cache/transcodes/9672dfefeab4af496be7964dae9a876b50.mp4' for writing
frame=  451 fps= 17 q=28.0 size=N/A time=00:00:17.96 bitrate=N/A speed=0.682x    
frame=  457 fps= 17 q=28.0 size=N/A time=00:00:18.20 bitrate=N/A speed=0.678x    
frame=  466 fps= 17 q=28.0 size=N/A time=00:00:18.56 bitrate=N/A speed=0.678x    
frame=  477 fps= 17 q=28.0 size=N/A time=00:00:19.00 bitrate=N/A speed=0.682x    
frame=  486 fps= 17 q=28.0 size=N/A time=00:00:19.36 bitrate=N/A speed=0.682x    
frame=  500 fps= 17 q=28.0 size=N/A time=00:00:19.92 bitrate=N/A speed=0.69x    
frame=  517 fps= 18 q=28.0 size=N/A time=00:00:20.60 bitrate=N/A speed=0.701x    
[hls @ 0xaaab055b3640] Opening '/cache/transcodes/9672dfefeab4af496be7964dae9a876b51.mp4' for writing
frame=  535 fps= 18 q=28.0 size=N/A time=00:00:21.32 bitrate=N/A speed=0.714x    
frame=  549 fps= 18 q=28.0 size=N/A time=00:00:21.88 bitrate=N/A speed=0.72x    
frame=  568 fps= 18 q=28.0 size=N/A time=00:00:22.64 bitrate=N/A speed=0.733x    
frame=  593 fps= 19 q=28.0 size=N/A time=00:00:23.64 bitrate=N/A speed=0.753x    
[hls @ 0xaaab055b3640] Opening '/cache/transcodes/9672dfefeab4af496be7964dae9a876b52.mp4' for writing
frame=  610 fps= 19 q=28.0 size=N/A time=00:00:24.32 bitrate=N/A speed=0.763x    
frame=  632 fps= 20 q=28.0 size=N/A time=00:00:25.20 bitrate=N/A speed=0.778x    
frame=  646 fps= 20 q=28.0 size=N/A time=00:00:25.76 bitrate=N/A speed=0.783x    
frame=  670 fps= 20 q=28.0 size=N/A time=00:00:26.72 bitrate=N/A speed= 0.8x    
[hls @ 0xaaab055b3640] Opening '/cache/transcodes/9672dfefeab4af496be7964dae9a876b53.mp4' for writing
frame=  683 fps= 20 q=28.0 size=N/A time=00:00:27.24 bitrate=N/A speed=0.804x    
frame=  699 fps= 20 q=28.0 size=N/A time=00:00:27.88 bitrate=N/A speed=0.811x    
frame=  721 fps= 21 q=28.0 size=N/A time=00:00:28.76 bitrate=N/A speed=0.824x    
frame=  731 fps= 21 q=28.0 size=N/A time=00:00:29.16 bitrate=N/A speed=0.824x    
frame=  743 fps= 21 q=28.0 size=N/A time=00:00:29.64 bitrate=N/A speed=0.826x    
[hls @ 0xaaab055b3640] Opening '/cache/transcodes/9672dfefeab4af496be7964dae9a876b54.mp4' for writing
frame=  759 fps= 21 q=28.0 size=N/A time=00:00:30.28 bitrate=N/A speed=0.832x    
frame=  776 fps= 21 q=28.0 size=N/A time=00:00:30.96 bitrate=N/A speed=0.839x    
frame=  792 fps= 21 q=28.0 size=N/A time=00:00:31.60 bitrate=N/A speed=0.845x    
frame=  811 fps= 21 q=28.0 size=N/A time=00:00:32.36 bitrate=N/A speed=0.854x    
[hls @ 0xaaab055b3640] Opening '/cache/transcodes/9672dfefeab4af496be7964dae9a876b55.mp4' for writing
frame=  826 fps= 22 q=28.0 size=N/A time=00:00:33.04 bitrate=N/A speed=0.861x    
frame=  853 fps= 22 q=28.0 size=N/A time=00:00:34.04 bitrate=N/A speed=0.875x    
frame=  873 fps= 22 q=28.0 size=N/A time=00:00:34.84 bitrate=N/A speed=0.884x    
frame=  892 fps= 22 q=28.0 size=N/A time=00:00:35.60 bitrate=N/A speed=0.892x    
[hls @ 0xaaab055b3640] Opening '/cache/transcodes/9672dfefeab4af496be7964dae9a876b56.mp4' for writing
frame=  908 fps= 22 q=28.0 size=N/A time=00:00:36.24 bitrate=N/A speed=0.897x    
frame=  924 fps= 23 q=28.0 size=N/A time=00:00:36.88 bitrate=N/A speed=0.902x    
frame=  939 fps= 23 q=28.0 size=N/A time=00:00:37.48 bitrate=N/A speed=0.905x    

[q] command received. Exiting.

[hls @ 0xaaab055b3640] Opening '/cache/transcodes/9672dfefeab4af496be7964dae9a876b57.mp4' for writing
[hls @ 0xaaab055b3640] Opening '/cache/transcodes/9672dfefeab4af496be7964dae9a876b58.mp4' for writing
[out#0/hls @ 0xaaab055882e0] video:6884KiB audio:606KiB subtitle:0KiB other streams:0KiB global headers:0KiB muxing overhead: unknown
frame=  994 fps= 23 q=-1.0 Lsize=N/A time=00:00:39.68 bitrate=N/A speed=0.927x    
[libx264 @ 0xaaab0558a3b0] frame I:14    Avg QP:14.65  size: 45338
[libx264 @ 0xaaab0558a3b0] frame P:253   Avg QP:19.12  size: 15443
[libx264 @ 0xaaab0558a3b0] frame B:727   Avg QP:20.79  size:  3449
[libx264 @ 0xaaab0558a3b0] consecutive B-frames:  1.4%  3.0%  0.6% 95.0%
[libx264 @ 0xaaab0558a3b0] mb I  I16..4: 43.2% 41.0% 15.8%
[libx264 @ 0xaaab0558a3b0] mb P  I16..4:  8.4% 12.5%  0.7%  P16..4: 18.3%  8.1%  2.7%  0.0%  0.0%    skip:49.2%
[libx264 @ 0xaaab0558a3b0] mb B  I16..4:  1.1%  0.6%  0.0%  B16..8:  9.9%  2.2%  0.1%  direct: 3.6%  skip:82.5%  L0:45.5% L1:48.6% BI: 5.9%
[libx264 @ 0xaaab0558a3b0] 8x8 transform intra:51.2% inter:48.1%
[libx264 @ 0xaaab0558a3b0] coded y,uvDC,uvAC intra: 24.1% 33.2% 2.7% inter: 1.3% 7.3% 0.0%
[libx264 @ 0xaaab0558a3b0] i16 v,h,dc,p: 41% 25% 13% 21%
[libx264 @ 0xaaab0558a3b0] i8 v,h,dc,ddl,ddr,vr,hd,vl,hu: 16% 20% 29%  4%  7%  6%  7%  4%  8%
[libx264 @ 0xaaab0558a3b0] i4 v,h,dc,ddl,ddr,vr,hd,vl,hu: 27% 27% 16%  3%  6%  5%  5%  4%  7%
[libx264 @ 0xaaab0558a3b0] i8c dc,h,v,p: 46% 25% 21%  8%
[libx264 @ 0xaaab0558a3b0] Weighted P-Frames: Y:0.0% UV:0.0%
[libx264 @ 0xaaab0558a3b0] kb/s:1418.28